<svg id="visual" viewBox="0 0 900 600" width="900" height="600" xmlns="http://www.w3.org/2000/svg" xmlns:xlink="http://www.w3.org/1999/xlink" version="1.1"><rect x="0" y="0" width="900" height="600" fill="#001220"></rect><path d="M477 0L477.7 20C478.3 40 479.7 80 471.3 120C463 160 445 200 422.7 240C400.3 280 373.7 320 358.8 360C344 400 341 440 363.5 480C386 520 434 560 458 580L482 600L0 600L0 580C0 560 0 520 0 480C0 440 0 400 0 360C0 320 0 280 0 240C0 200 0 160 0 120C0 80 0 40 0 20L0 0Z" fill="#fafafa"></path></svg>