<svg id="visual" viewBox="0 0 675 900" width="675" height="900" xmlns="http://www.w3.org/2000/svg" xmlns:xlink="http://www.w3.org/1999/xlink" version="1.1"><g stroke-width="1" stroke-linejoin="bevel"><path d="M341.5 505L372.5 352L0 331Z" fill="#4ea4d1" stroke="#4ea4d1"></path><path d="M0 331L0 641L341.5 505Z" fill="#2c516a" stroke="#2c516a"></path><path d="M372.5 352L297.5 0L0 331Z" fill="#1d3344" stroke="#1d3344"></path><path d="M297.5 0L0 0L0 331Z" fill="#2c516a" stroke="#2c516a"></path><path d="M372.5 352L675 200L297.5 0Z" fill="#5ac9fc" stroke="#5ac9fc"></path><path d="M675 698L675 200L372.5 352Z" fill="#4893bb" stroke="#4893bb"></path><path d="M0 641L347.5 900L341.5 505Z" fill="#33607d" stroke="#33607d"></path><path d="M341.5 505L675 698L372.5 352Z" fill="#2c516a" stroke="#2c516a"></path><path d="M0 641L0 900L347.5 900Z" fill="#5ac9fc" stroke="#5ac9fc"></path><path d="M347.5 900L675 698L341.5 505Z" fill="#1d3344" stroke="#1d3344"></path><path d="M675 200L675 0L297.5 0Z" fill="#1d3344" stroke="#1d3344"></path><path d="M347.5 900L675 900L675 698Z" fill="#4ea4d1" stroke="#4ea4d1"></path></g></svg>