<svg id="visual" viewBox="0 0 675 900" width="675" height="900" xmlns="http://www.w3.org/2000/svg" xmlns:xlink="http://www.w3.org/1999/xlink" version="1.1"><rect x="0" y="0" width="675" height="900" fill="#001220"></rect><defs><linearGradient id="grad1_0" x1="0%" y1="0%" x2="100%" y2="100%"><stop offset="30%" stop-color="#00f7ff" stop-opacity="1"></stop><stop offset="70%" stop-color="#00f7ff" stop-opacity="1"></stop></linearGradient></defs><defs><linearGradient id="grad1_1" x1="0%" y1="0%" x2="100%" y2="100%"><stop offset="30%" stop-color="#00f7ff" stop-opacity="1"></stop><stop offset="70%" stop-color="#00b6ce" stop-opacity="1"></stop></linearGradient></defs><defs><linearGradient id="grad1_2" x1="0%" y1="0%" x2="100%" y2="100%"><stop offset="30%" stop-color="#007996" stop-opacity="1"></stop><stop offset="70%" stop-color="#00b6ce" stop-opacity="1"></stop></linearGradient></defs><defs><linearGradient id="grad1_3" x1="0%" y1="0%" x2="100%" y2="100%"><stop offset="30%" stop-color="#007996" stop-opacity="1"></stop><stop offset="70%" stop-color="#0a425a" stop-opacity="1"></stop></linearGradient></defs><defs><linearGradient id="grad1_4" x1="0%" y1="0%" x2="100%" y2="100%"><stop offset="30%" stop-color="#001220" stop-opacity="1"></stop><stop offset="70%" stop-color="#0a425a" stop-opacity="1"></stop></linearGradient></defs><defs><linearGradient id="grad2_0" x1="0%" y1="0%" x2="100%" y2="100%"><stop offset="30%" stop-color="#00f7ff" stop-opacity="1"></stop><stop offset="70%" stop-color="#00f7ff" stop-opacity="1"></stop></linearGradient></defs><defs><linearGradient id="grad2_1" x1="0%" y1="0%" x2="100%" y2="100%"><stop offset="30%" stop-color="#00b6ce" stop-opacity="1"></stop><stop offset="70%" stop-color="#00f7ff" stop-opacity="1"></stop></linearGradient></defs><defs><linearGradient id="grad2_2" x1="0%" y1="0%" x2="100%" y2="100%"><stop offset="30%" stop-color="#00b6ce" stop-opacity="1"></stop><stop offset="70%" stop-color="#007996" stop-opacity="1"></stop></linearGradient></defs><defs><linearGradient id="grad2_3" x1="0%" y1="0%" x2="100%" y2="100%"><stop offset="30%" stop-color="#0a425a" stop-opacity="1"></stop><stop offset="70%" stop-color="#007996" stop-opacity="1"></stop></linearGradient></defs><defs><linearGradient id="grad2_4" x1="0%" y1="0%" x2="100%" y2="100%"><stop offset="30%" stop-color="#0a425a" stop-opacity="1"></stop><stop offset="70%" stop-color="#001220" stop-opacity="1"></stop></linearGradient></defs><g transform="translate(675, 0)"><path d="M0 413C-71.7 450.5 -143.4 488 -193.7 467.7C-244.1 447.4 -273.1 369.3 -315.4 315.4C-357.6 261.5 -413.1 231.8 -442.5 183.3C-472 134.8 -475.5 67.4 -479 0L0 0Z" fill="#08293c"></path><path d="M0 330.4C-57.3 360.4 -114.7 390.4 -155 374.2C-195.3 357.9 -218.5 295.4 -252.3 252.3C-286.1 209.2 -330.5 185.5 -354 146.6C-377.6 107.8 -380.4 53.9 -383.2 0L0 0Z" fill="#055d78"></path><path d="M0 247.8C-43 270.3 -86 292.8 -116.2 280.6C-146.5 268.4 -163.9 221.6 -189.2 189.2C-214.6 156.9 -247.8 139.1 -265.5 110C-283.2 80.9 -285.3 40.4 -287.4 0L0 0Z" fill="#0097b3"></path><path d="M0 165.2C-28.7 180.2 -57.3 195.2 -77.5 187.1C-97.6 179 -109.3 147.7 -126.1 126.1C-143 104.6 -165.2 92.7 -177 73.3C-188.8 53.9 -190.2 27 -191.6 0L0 0Z" fill="#00d6e8"></path><path d="M0 82.6C-14.3 90.1 -28.7 97.6 -38.7 93.5C-48.8 89.5 -54.6 73.9 -63.1 63.1C-71.5 52.3 -82.6 46.4 -88.5 36.7C-94.4 27 -95.1 13.5 -95.8 0L0 0Z" fill="#00f7ff"></path></g><g transform="translate(0, 900)"><path d="M0 -443C59.2 -448.3 118.4 -453.5 183.7 -443.5C249 -433.4 320.5 -408 358 -358C395.5 -307.9 399.1 -233.3 409.3 -169.5C419.5 -105.8 436.2 -52.9 453 0L0 0Z" fill="#08293c"></path><path d="M0 -354.4C47.3 -358.6 94.7 -362.8 147 -354.8C199.2 -346.7 256.4 -326.4 286.4 -286.4C316.4 -246.4 319.3 -186.6 327.4 -135.6C335.6 -84.6 349 -42.3 362.4 0L0 0Z" fill="#055d78"></path><path d="M0 -265.8C35.5 -269 71 -272.1 110.2 -266.1C149.4 -260 192.3 -244.8 214.8 -214.8C237.3 -184.8 239.5 -140 245.6 -101.7C251.7 -63.5 261.7 -31.7 271.8 0L0 0Z" fill="#0097b3"></path><path d="M0 -177.2C23.7 -179.3 47.3 -181.4 73.5 -177.4C99.6 -173.4 128.2 -163.2 143.2 -143.2C158.2 -123.2 159.6 -93.3 163.7 -67.8C167.8 -42.3 174.5 -21.2 181.2 0L0 0Z" fill="#00d6e8"></path><path d="M0 -88.6C11.8 -89.7 23.7 -90.7 36.7 -88.7C49.8 -86.7 64.1 -81.6 71.6 -71.6C79.1 -61.6 79.8 -46.7 81.9 -33.9C83.9 -21.2 87.2 -10.6 90.6 0L0 0Z" fill="#00f7ff"></path></g></svg>