<svg id="visual" viewBox="0 0 900 600" width="900" height="600" xmlns="http://www.w3.org/2000/svg" xmlns:xlink="http://www.w3.org/1999/xlink" version="1.1"><rect x="0" y="0" width="900" height="600" fill="#62a5f6"></rect><defs><linearGradient id="grad1_0" x1="33.3%" y1="100%" x2="100%" y2="0%"><stop offset="20%" stop-color="#13485c" stop-opacity="1"></stop><stop offset="80%" stop-color="#13485c" stop-opacity="1"></stop></linearGradient></defs><defs><linearGradient id="grad1_1" x1="33.3%" y1="100%" x2="100%" y2="0%"><stop offset="20%" stop-color="#13485c" stop-opacity="1"></stop><stop offset="80%" stop-color="#62a5f6" stop-opacity="1"></stop></linearGradient></defs><defs><linearGradient id="grad2_0" x1="0%" y1="100%" x2="66.7%" y2="0%"><stop offset="20%" stop-color="#13485c" stop-opacity="1"></stop><stop offset="80%" stop-color="#13485c" stop-opacity="1"></stop></linearGradient></defs><defs><linearGradient id="grad2_1" x1="0%" y1="100%" x2="66.7%" y2="0%"><stop offset="20%" stop-color="#62a5f6" stop-opacity="1"></stop><stop offset="80%" stop-color="#13485c" stop-opacity="1"></stop></linearGradient></defs><g transform="translate(900, 600)"><path d="M-459.7 0C-413.7 -60.3 -367.7 -120.7 -335.2 -193.5C-302.6 -266.3 -283.5 -351.7 -229.9 -398.1C-176.2 -444.6 -88.1 -452.1 0 -459.7L0 0Z" fill="#2677a6"></path><path d="M-229.9 0C-206.9 -30.2 -183.9 -60.3 -167.6 -96.8C-151.3 -133.2 -141.7 -175.8 -114.9 -199.1C-88.1 -222.3 -44.1 -226.1 0 -229.9L0 0Z" fill="#13485c"></path></g><g transform="translate(0, 0)"><path d="M459.7 0C374.9 37.9 290.1 75.9 262.4 151.5C234.7 227.1 264.1 340.5 229.9 398.1C195.6 455.8 97.8 457.7 0 459.7L0 0Z" fill="#2677a6"></path><path d="M229.9 0C187.5 19 145.1 37.9 131.2 75.7C117.3 113.6 132 170.2 114.9 199.1C97.8 227.9 48.9 228.9 0 229.9L0 0Z" fill="#13485c"></path></g></svg>